<mxfile host="app.diagrams.net" modified="2024-04-09T02:05:35.277Z" agent="Mozilla/5.0 (X11; Ubuntu; Linux x86_64; rv:124.0) Gecko/20100101 Firefox/124.0" etag="yUV8lMskyXT-1i7qn-mB" version="24.2.3" type="github">
  <diagram id="R2lEEEUBdFMjLlhIrx00" name="Page-1">
    <mxGraphModel dx="1434" dy="792" grid="1" gridSize="10" guides="1" tooltips="1" connect="1" arrows="1" fold="1" page="1" pageScale="1" pageWidth="850" pageHeight="1100" math="0" shadow="0" extFonts="Permanent Marker^https://fonts.googleapis.com/css?family=Permanent+Marker">
      <root>
        <mxCell id="0" />
        <mxCell id="1" parent="0" />
        <mxCell id="G3QgTLxGaqYG5AluxUQO-5" value="" style="edgeStyle=orthogonalEdgeStyle;rounded=0;orthogonalLoop=1;jettySize=auto;html=1;" edge="1" parent="1" source="G3QgTLxGaqYG5AluxUQO-1" target="G3QgTLxGaqYG5AluxUQO-2">
          <mxGeometry relative="1" as="geometry" />
        </mxCell>
        <mxCell id="G3QgTLxGaqYG5AluxUQO-1" value="CONDUCE" style="rhombus;whiteSpace=wrap;html=1;" vertex="1" parent="1">
          <mxGeometry x="310" y="230" width="200" height="80" as="geometry" />
        </mxCell>
        <mxCell id="G3QgTLxGaqYG5AluxUQO-2" value="VEHICULO" style="rounded=0;whiteSpace=wrap;html=1;" vertex="1" parent="1">
          <mxGeometry x="600" y="240" width="120" height="60" as="geometry" />
        </mxCell>
        <mxCell id="G3QgTLxGaqYG5AluxUQO-4" value="" style="edgeStyle=orthogonalEdgeStyle;rounded=0;orthogonalLoop=1;jettySize=auto;html=1;" edge="1" parent="1" source="G3QgTLxGaqYG5AluxUQO-3" target="G3QgTLxGaqYG5AluxUQO-1">
          <mxGeometry relative="1" as="geometry" />
        </mxCell>
        <mxCell id="G3QgTLxGaqYG5AluxUQO-3" value="CHOEFR" style="rounded=0;whiteSpace=wrap;html=1;" vertex="1" parent="1">
          <mxGeometry x="100" y="240" width="120" height="60" as="geometry" />
        </mxCell>
        <mxCell id="G3QgTLxGaqYG5AluxUQO-6" value="N:N" style="text;html=1;align=center;verticalAlign=middle;whiteSpace=wrap;rounded=0;" vertex="1" parent="1">
          <mxGeometry x="290" y="160" width="60" height="30" as="geometry" />
        </mxCell>
      </root>
    </mxGraphModel>
  </diagram>
</mxfile>
